<svg aria-hidden="true" style="position:absolute;width:0;height:0;overflow:hidden" xmlns="http://www.w3.org/2000/svg"><defs><symbol id="play-button" viewBox="0 0 32 32"><path d="m24.3 15.559-11.733-8a.533.533 0 0 0-.833.44V24a.533.533 0 0 0 .836.439l-.002.001 11.733-8a.534.534 0 0 0 .002-.88l-.002-.001zM12.8 22.99V9.009l10.253 6.99-10.253 6.99z"/><path d="M16 0C7.178 0 0 7.178 0 16s7.178 16 16 16 16-7.178 16-16S24.822 0 16 0zm0 30.933C7.766 30.933 1.067 24.234 1.067 16S7.766 1.067 16 1.067 30.933 7.766 30.933 16 24.234 30.933 16 30.933z"/></symbol></defs></svg>