<svg aria-hidden="true" style="position: absolute; width: 0; height: 0; overflow: hidden;" version="1.1" xmlns="http://www.w3.org/2000/svg" xmlns:xlink="http://www.w3.org/1999/xlink">
<defs>
<symbol id="icon-imdb" viewBox="0 0 32 32">
<path fill="#f5c518" d="M4.192 9.252h23.616c0.932 0 1.688 0.756 1.688 1.688v10.12c0 0.932-0.756 1.688-1.688 1.688h-23.616c-0.932 0-1.688-0.756-1.688-1.688v-10.12c0-0.932 0.756-1.688 1.688-1.688z"></path>
<path fill="#000" style="fill: var(--color2, #000)" d="M5.88 19.796h2.108v-7.592h-2.108zM12.487 12.204l-0.472 3.546-0.292-1.928c-0.085-0.618-0.168-1.158-0.244-1.618h-2.647v7.592h1.788l0.006-5.011 0.752 5.011h1.273l0.716-5.124 0.006 5.124h1.782v-7.592h-2.669zM16 19.796v-7.592h3.29c0.743 0 1.347 0.6 1.347 1.34v4.911c0 0.74-0.603 1.34-1.347 1.34h-3.29zM18.462 13.572c-0.082-0.046-0.244-0.067-0.475-0.067v4.981c0.308 0 0.497-0.055 0.567-0.171 0.070-0.113 0.107-0.42 0.107-0.926v-2.943c0-0.344-0.012-0.564-0.037-0.661s-0.076-0.168-0.161-0.213zM24.615 14.105h0.134c0.759 0 1.371 0.594 1.371 1.322v3.043c0 0.731-0.612 1.322-1.371 1.322h-0.134c-0.463 0-0.874-0.222-1.121-0.561l-0.122 0.463h-1.892v-7.494h2.017v2.437c0.265-0.32 0.667-0.533 1.118-0.533zM24.186 17.807v-1.797c0-0.299-0.018-0.494-0.058-0.582s-0.198-0.146-0.311-0.146-0.283 0.046-0.317 0.125v3.043c0.040 0.085 0.201 0.134 0.317 0.134s0.28-0.046 0.317-0.134 0.052-0.302 0.052-0.643z"></path>
</symbol>
</defs>
</svg>
